<?xml version="1.0" encoding="UTF-8"?>
<svg width="16px" height="16px" viewBox="0 0 16 16" version="1.1" xmlns="http://www.w3.org/2000/svg" xmlns:xlink="http://www.w3.org/1999/xlink">
    <title>_Assets/Badge/badge_Ratings_Brazil/14</title>
    <g id="_Assets/Badge/badge_Ratings_Brazil/14" stroke="none" stroke-width="1" fill="none" fill-rule="evenodd">
        <g id="Vector-Trace">
            <rect id="Plate" fill="#F5821F" x="0" y="0" width="16" height="16" rx="1.3"></rect>
            <path d="M3.90988528,5.20017753 C4.08579424,5.11440248 4.30969187,4.94828463 4.58157819,4.70182396 C4.79634388,4.48008783 4.95528757,4.24055188 5.05840926,3.98321611 L6.40116403,3.98321611 L6.40116403,12.0167839 L4.86714887,12.0167839 L4.86714887,6.01467545 C4.69844548,6.16460189 4.5449589,6.28953716 4.40668913,6.38948125 C4.26841936,6.48942535 4.10281808,6.56927804 3.90988528,6.62903935 L3.90988528,5.20017753 Z M11.1129635,3.98321611 L11.1129635,9.00245547 L12.0901147,9.00245547 L12.0901147,10.2018294 L11.1129635,10.2018294 L11.1129635,11.9547345 L9.59811451,11.9547345 L9.59811451,10.2018294 L7.41855117,10.2018294 L7.41855117,8.91521973 L8.8770918,3.98321611 L11.1129635,3.98321611 Z M9.64833266,8.97521103 L9.69733561,5.12030612 L8.62646361,8.97521103 L9.64833266,8.97521103 Z" id="Combined-Shape" fill="#FFFFFF"></path>
        </g>
    </g>
</svg>