<?xml version="1.0" encoding="UTF-8"?>
<svg width="16px" height="16px" viewBox="0 0 16 16" version="1.1" xmlns="http://www.w3.org/2000/svg" xmlns:xlink="http://www.w3.org/1999/xlink">
    <title>_Assets/Badge/badge_Ratings_Brazil/A10</title>
    <g id="_Assets/Badge/badge_Ratings_Brazil/A10" stroke="none" stroke-width="1" fill="none" fill-rule="evenodd">
        <g id="Vector-Trace">
            <rect id="Plate" fill="#0283CA" x="0" y="0" width="16" height="16" rx="1.3"></rect>
            <path d="M6.77976115,5.19366546 C6.95715179,5.10716793 7.18293532,4.93965086 7.45711175,4.69111425 C7.67368641,4.46751043 7.83396889,4.22595686 7.93795917,3.96645354 L9.292024,3.96645354 L9.292024,12.0676882 L7.74508779,12.0676882 L7.74508779,6.01502391 C7.57496341,6.16621319 7.42018401,6.29220079 7.28074959,6.39298671 C7.14131518,6.49377263 6.97431903,6.57429793 6.77976115,6.63456261 L6.77976115,5.19366546 Z M14.5399323,6.69083634 L14.5399323,9.31707211 C14.5399323,9.91364912 14.511877,10.3481128 14.4557664,10.6204632 C14.3996559,10.8928136 14.2972312,11.2073711 14.120483,11.4440566 C13.9437347,11.680742 13.7455616,11.8257699 13.4958696,11.9295224 C13.2461776,12.0332749 12.8432891,12.0503027 12.534681,12.0503027 C12.1278794,12.0503027 11.8598004,12.0381383 11.5904697,11.9295224 C11.321139,11.8209065 11.0951473,11.6742575 10.9352322,11.4440566 C10.7753171,11.2138557 10.6977614,10.9065932 10.6304287,10.6520753 C10.5630961,10.3975574 10.5294297,9.99308465 10.5294297,9.4386571 L10.5294297,6.69083634 C10.5294297,5.96781094 10.5834361,5.42635246 10.691449,5.06646089 C10.7994618,4.70656932 10.9179849,4.45935054 11.2361974,4.21290204 C11.5544099,3.96645354 12.0458177,3.874928 12.5031188,3.874928 C13.0993131,3.874928 13.5295352,4.00411571 13.9069583,4.2697191 C14.2843815,4.53532249 14.4101766,5.11509488 14.4620789,5.38744526 C14.5139811,5.65979564 14.5399323,6.09425933 14.5399323,6.69083634 Z M12.8916667,5.88726913 C12.8916667,5.43913516 12.8711503,5.15861719 12.8301174,5.04571522 C12.7890846,4.93281325 12.6930678,4.87636227 12.5420669,4.87636227 C12.3943487,4.87636227 12.2966905,4.93628716 12.2490924,5.05613694 C12.2014944,5.17598673 12.1776953,5.45303079 12.1776953,5.88726913 L12.1776953,10.0038486 C12.1776953,10.4936695 12.199853,10.7889516 12.2441685,10.8896948 C12.288484,10.9904381 12.3845008,11.0408098 12.532219,11.0408098 C12.6799372,11.0408098 12.7767747,10.9817534 12.8227315,10.8636405 C12.8686883,10.7455277 12.8916667,10.4797738 12.8916667,10.0663789 L12.8916667,5.88726913 Z M5.50180611,4.03412044 L6.75931556,12.0676882 L4.57337821,12.0676882 L4.46041707,10.6171204 L3.70141707,10.6171204 L3.584216,12.0676882 L1.37941707,12.0676882 L2.46560111,4.03412044 L5.50180611,4.03412044 Z M4.09305594,5.84858991 L3.68673127,9.1892807 L3.68941707,9.19012044 L4.35041707,9.19012044 L4.09305594,5.84858991 Z" id="Combined-Shape" fill="#FFFFFF"></path>
        </g>
    </g>
</svg>