<?xml version="1.0" encoding="UTF-8"?>
<svg width="16px" height="16px" viewBox="0 0 16 16" version="1.1" xmlns="http://www.w3.org/2000/svg" xmlns:xlink="http://www.w3.org/1999/xlink">
    <title>_Assets/Badge/badge_Ratings_Brazil/A16</title>
    <g id="_Assets/Badge/badge_Ratings_Brazil/A16" stroke="none" stroke-width="1" fill="none" fill-rule="evenodd">
        <g id="Vector-Trace">
            <rect id="Plate" fill="#DC061D" x="0" y="0" width="16" height="16" rx="1.3"></rect>
            <path d="M14.6274878,5.89277984 L12.9461631,5.89277984 C12.9461631,5.52239509 12.942695,5.37015742 12.9357588,5.27346406 C12.9288227,5.1767707 12.8955291,4.99734724 12.8358782,4.93179241 C12.7762272,4.86623759 12.6950741,4.83346018 12.592419,4.83346018 C12.5064106,4.83346018 12.4356618,4.86459872 12.3801726,4.9268758 C12.3246833,4.98915288 12.292777,5.16775691 12.2844536,5.26608914 C12.2761302,5.36442138 12.2719685,5.73817695 12.2719685,6.0364514 L12.2719685,7.38918607 C12.3319708,7.28264233 12.4758419,7.15520635 12.6423097,7.04867977 C12.8087775,6.94215318 13.0247919,6.88513075 13.2689446,6.88513075 C13.57691,6.88513075 13.8781831,6.90936874 14.1140125,7.10603321 C14.3498419,7.30269768 14.4501079,7.48483831 14.5139206,7.76016857 C14.5777332,8.03549882 14.6274878,8.31612035 14.6274878,8.78483733 L14.6274878,9.41908023 C14.6274878,9.97629623 14.6094538,10.3909305 14.5733858,10.662983 C14.5373178,10.9350355 14.4409052,11.1866021 14.284148,11.4176829 C14.1273908,11.6487636 13.9123699,11.82822 13.6390853,11.9560519 C13.3658006,12.0838838 13.047431,12.1477997 12.6839763,12.1477997 C12.2317388,12.1477997 11.7259872,12.0241084 11.437443,11.8766101 C11.1488988,11.7291117 11.0610339,11.6087633 10.9042767,11.3317941 C10.7475195,11.054825 10.6565373,10.7219823 10.6301799,10.4171524 C10.6038225,10.1123225 10.5906438,9.52069021 10.5906438,8.64225559 L10.5906438,7.54093457 C10.5906438,6.59366739 10.6024352,5.96024392 10.6260182,5.64066416 C10.6496011,5.3210844 10.7981107,4.82828493 10.9673529,4.54312146 C11.1365952,4.25795798 11.3154723,4.15774159 11.6081782,4.01515985 C11.900884,3.87257811 12.2261899,3.85220028 12.6090658,3.85220028 C13.0807245,3.85220028 13.5489143,3.87479359 13.8513308,4.05506936 C14.1537473,4.23534512 14.3273352,4.40577519 14.4577349,4.7335493 C14.5881347,5.06132341 14.6274878,5.39456319 14.6274878,5.89277984 Z M13.0045736,8.79570922 C13.0045736,8.50693323 12.9736491,8.30881947 12.9118002,8.20136794 C12.8499512,8.09391641 12.7490397,8.04019065 12.6090658,8.04019065 C12.472347,8.04019065 12.3722494,8.09139802 12.3087728,8.19381276 C12.2452963,8.2962275 12.213558,8.49685965 12.213558,8.79570922 L12.213558,10.2714888 C12.213558,10.6307799 12.2436686,10.8658301 12.30389,10.9766395 C12.3641114,11.0874489 12.464209,11.1428536 12.604183,11.1428536 C12.6888184,11.1428536 12.776709,11.1000409 12.8678548,11.0144154 C12.9590007,10.92879 13.0045736,10.6979371 13.0045736,10.3218567 L13.0045736,8.79570922 Z M5.36518653,4.0098916 L6.62269598,12.0434594 L4.43675863,12.0434594 L4.32379749,10.5928916 L3.56479749,10.5928916 L3.44759642,12.0434594 L1.24279749,12.0434594 L2.32898153,4.0098916 L5.36518653,4.0098916 Z M3.95643636,5.82436107 L3.55011169,9.16505185 L3.55279749,9.1658916 L4.21379749,9.1658916 L3.95643636,5.82436107 Z M6.75436062,5.22685302 C6.93026958,5.14107797 7.15416722,4.97496012 7.42605353,4.72849946 C7.64081922,4.50676332 7.79976291,4.26722737 7.9028846,4.0098916 L9.24563938,4.0098916 L9.24563938,12.0434594 L7.71162421,12.0434594 L7.71162421,6.04135094 C7.54292082,6.19127739 7.38943424,6.31621265 7.25116447,6.41615674 C7.11289471,6.51610084 6.94729342,6.59595354 6.75436062,6.65571484 L6.75436062,5.22685302 Z" id="Combined-Shape" fill="#FFFFFF" fill-rule="nonzero"></path>
        </g>
    </g>
</svg>