<?xml version="1.0" encoding="UTF-8"?>
<svg width="16px" height="16px" viewBox="0 0 16 16" version="1.1" xmlns="http://www.w3.org/2000/svg" xmlns:xlink="http://www.w3.org/1999/xlink">
    <title>_Assets/Badge/badge_Ratings_Brazil/A14</title>
    <g id="_Assets/Badge/badge_Ratings_Brazil/A14" stroke="none" stroke-width="1" fill="none" fill-rule="evenodd">
        <g id="Vector-Trace">
            <rect id="Plate" fill="#ED6A13" x="0" y="0" width="16" height="16" rx="1.3"></rect>
            <path d="M5.36080741,4.03412044 L6.61831686,12.0676882 L4.43237951,12.0676882 L4.31941837,10.6171204 L3.56041837,10.6171204 L3.4432173,12.0676882 L1.23841837,12.0676882 L2.32460241,4.03412044 L5.36080741,4.03412044 Z M9.10959561,4.03412044 L9.10959561,12.0676882 L7.57558045,12.0676882 L7.57558045,6.06557979 C7.40687706,6.21550623 7.25339048,6.3404415 7.11512071,6.44038559 C6.97685094,6.54032968 6.81124966,6.62018238 6.61831686,6.67994368 L6.61831686,5.25108186 C6.79422582,5.16530682 7.01812345,4.99918896 7.29000977,4.7527283 C7.50477546,4.53099217 7.66371915,4.29145622 7.76684084,4.03412044 L9.10959561,4.03412044 Z M3.95205724,5.84858991 L3.54573257,9.1892807 L3.54841837,9.19012044 L4.20941837,9.19012044 L3.95205724,5.84858991 Z M13.8213951,4.03412044 L13.8213951,9.05335981 L14.7985463,9.05335981 L14.7985463,10.2527337 L13.8213951,10.2527337 L13.8213951,12.0056388 L12.3065461,12.0056388 L12.3065461,10.2527337 L10.1269828,10.2527337 L10.1269828,8.96612407 L11.5855234,4.03412044 L13.8213951,4.03412044 Z M12.3567642,9.02611537 L12.4057672,5.17121046 L11.3348952,9.02611537 L12.3567642,9.02611537 Z" id="Combined-Shape" fill="#FFFFFF"></path>
        </g>
    </g>
</svg>