<?xml version="1.0" encoding="UTF-8"?>
<svg width="16px" height="16px" viewBox="0 0 16 16" version="1.1" xmlns="http://www.w3.org/2000/svg" xmlns:xlink="http://www.w3.org/1999/xlink">
    <title>_Assets/Badge/badge_Ratings_Brazil/A12</title>
    <g id="_Assets/Badge/badge_Ratings_Brazil/A12" stroke="none" stroke-width="1" fill="none" fill-rule="evenodd">
        <g id="Vector-Trace">
            <rect id="Plate" fill="#FECB17" x="0" y="0" width="16" height="16" rx="1.3"></rect>
            <path d="M5.52652131,4.03412044 L6.78403075,12.0676882 L4.5980934,12.0676882 L4.48513226,10.6171204 L3.72613226,10.6171204 L3.60893119,12.0676882 L1.40413226,12.0676882 L2.4903163,4.03412044 L5.52652131,4.03412044 Z M9.27530951,4.03412044 L9.27530951,12.0676882 L7.74129434,12.0676882 L7.74129434,6.06557979 C7.57259095,6.21550623 7.41910437,6.3404415 7.2808346,6.44038559 C7.14256483,6.54032968 6.97696355,6.62018238 6.78403075,6.67994368 L6.78403075,5.25108186 C6.95993971,5.16530682 7.18383734,4.99918896 7.45572366,4.7527283 C7.67048935,4.53099217 7.82943304,4.29145622 7.93255473,4.03412044 L9.27530951,4.03412044 Z M4.11777113,5.84858991 L3.71144646,9.1892807 L3.71413226,9.19012044 L4.37513226,9.19012044 L4.11777113,5.84858991 Z M14.6286546,10.8229492 L14.6286546,12 L10.3561937,12 L10.3561937,10.6523438 C11.642001,8.54947917 12.2723598,7.88137728 12.5148728,7.38170281 C12.7573858,6.88202833 12.8930887,6.35906955 12.8930887,6.07912163 C12.8930887,5.86427788 12.8686423,5.34696002 12.8246698,5.2001318 C12.7806972,5.05330359 12.6221178,4.93000502 12.4723782,4.93000502 C12.3226386,4.93000502 12.2295564,5.03621375 12.1620772,5.2001318 C12.1170911,5.30941051 12.0936511,5.65137399 12.091757,6.22602224 L10.4882026,6.22602224 C10.4723637,5.64113512 10.5278376,5.19376649 10.6546243,4.88391636 C10.8448044,4.41914116 11.1048916,4.26074219 11.3913499,4.13378906 C11.6778083,4.00683594 12.0212327,3.94335938 12.4216234,3.94335938 C13.2061286,3.94335938 13.667807,4.07563305 14.0698253,4.46463045 C14.4718435,4.85362785 14.4650804,5.40820313 14.4650804,6.00390625 C14.4650804,6.45638021 14.4775283,7.0083636 14.2512913,7.51292089 C14.0250543,8.01747818 13.1227158,9.18557945 12.015945,10.8229492 L14.6286546,10.8229492 Z" id="Combined-Shape" fill="#FFFFFF"></path>
        </g>
    </g>
</svg>