<?xml version="1.0" encoding="UTF-8"?>
<svg width="16px" height="16px" viewBox="0 0 16 16" version="1.1" xmlns="http://www.w3.org/2000/svg" xmlns:xlink="http://www.w3.org/1999/xlink">
    <title>_Assets/Badge/badge_Ratings_Brazil/18</title>
    <g id="_Assets/Badge/badge_Ratings_Brazil/18" stroke="none" stroke-width="1" fill="none" fill-rule="evenodd">
        <g id="Vector-Trace">
            <rect id="Plate" fill="#000000" x="0" y="0" width="16" height="16" rx="1.3"></rect>
            <path d="M9.86034765,3.95527548 L9.876648,3.95527548 L9.876648,4.92127548 L9.80903388,4.92714217 C9.70875828,4.94537019 9.6384501,5.00005426 9.59810934,5.09119436 C9.5476834,5.2051195 9.52247042,5.41797961 9.52247042,5.72977472 L9.52247042,6.46729006 C9.52247042,6.75909829 9.55128525,6.96096563 9.6089149,7.07289208 C9.66299812,7.17793075 9.75197541,7.23368204 9.87584677,7.24014596 L9.877573,8.40279572 C9.87409042,8.40273335 9.87058445,8.40270217 9.86705511,8.40270217 C9.7276029,8.40270217 9.62737163,8.45217369 9.5663613,8.55111674 C9.50535096,8.65005978 9.47484579,8.85884637 9.47484579,9.17747652 L9.47484579,10.233987 C9.47484579,10.5861571 9.50883726,10.8125522 9.57682021,10.9131723 C9.64136306,11.0087007 9.74125792,11.0588819 9.8765048,11.0637159 L9.87707939,12.0447245 L9.87707939,12.0447245 C9.375127,12.0447245 8.94201772,11.9412604 8.64921216,11.7583936 C8.3564066,11.5755269 8.22903181,11.4566445 8.1021494,11.1550747 C7.97526699,10.8535049 7.923648,10.3363638 7.923648,9.63377035 C7.923648,9.16216653 7.92852809,8.74535394 8.2374232,8.32126591 C8.54631831,7.89717787 8.66225725,7.98475532 8.99410356,7.77622303 C8.46326742,7.62051075 8.15543999,7.25533326 8.0554105,6.92445457 C7.95538102,6.59357589 7.923648,6.35500099 7.923648,5.9668101 C7.923648,5.29629856 8.09116301,4.76393329 8.41464344,4.42867752 C8.73812387,4.09342175 9.21617541,3.95527548 9.86034765,3.95527548 Z M9.89479836,3.95527548 L9.87849801,3.95527548 L9.87849801,4.92127548 L9.94611213,4.92714217 C10.0463877,4.94537019 10.1166959,5.00005426 10.1570367,5.09119436 C10.2074626,5.2051195 10.2326756,5.41797961 10.2326756,5.72977472 L10.2326756,6.46729006 C10.2326756,6.75909829 10.2038608,6.96096563 10.1462311,7.07289208 C10.0921479,7.17793075 10.0031706,7.23368204 9.87929924,7.24014596 L9.877573,8.40279572 C9.88105559,8.40273335 9.88456156,8.40270217 9.8880909,8.40270217 C10.0275431,8.40270217 10.1277744,8.45217369 10.1887847,8.55111674 C10.2497951,8.65005978 10.2803002,8.85884637 10.2803002,9.17747652 L10.2803002,10.233987 C10.2803002,10.5861571 10.2463087,10.8125522 10.1783258,10.9131723 C10.113783,11.0087007 10.0138881,11.0588819 9.87864121,11.0637159 L9.87806662,12.0447245 L9.87806662,12.0447245 C10.380019,12.0447245 10.8131283,11.9412604 11.1059338,11.7583936 C11.3987394,11.5755269 11.5261142,11.4566445 11.6529966,11.1550747 C11.779879,10.8535049 11.831498,10.3363638 11.831498,9.63377035 C11.831498,9.16216653 11.8266179,8.74535394 11.5177228,8.32126591 C11.2088277,7.89717787 11.0928888,7.98475532 10.7610425,7.77622303 C11.2918786,7.62051075 11.599706,7.25533326 11.6997355,6.92445457 C11.799765,6.59357589 11.831498,6.35500099 11.831498,5.9668101 C11.831498,5.29629856 11.663983,4.76393329 11.3405026,4.42867752 C11.0170221,4.09342175 10.5389706,3.95527548 9.89479836,3.95527548 Z M4.16850199,5.31425825 C4.34218167,5.22957023 4.56324187,5.06555757 4.8316826,4.82222028 C5.04372659,4.60329419 5.200656,4.36679385 5.30247084,4.11271927 L6.628209,4.11271927 L6.628209,12.0444784 L5.11363427,12.0444784 L5.11363427,6.11843412 C4.94706884,6.26646056 4.79552738,6.38981253 4.6590099,6.48849004 C4.52249241,6.58716755 4.35898977,6.66600828 4.16850199,6.72501224 L4.16850199,5.31425825 Z" id="Combined-Shape" fill="#FFFFFF" fill-rule="nonzero"></path>
        </g>
    </g>
</svg>