<?xml version="1.0" encoding="UTF-8"?>
<svg width="16px" height="16px" viewBox="0 0 16 16" version="1.1" xmlns="http://www.w3.org/2000/svg" xmlns:xlink="http://www.w3.org/1999/xlink">
    <title>_Assets/Badge/badge_Ratings_Brazil/10</title>
    <g id="_Assets/Badge/badge_Ratings_Brazil/10" stroke="none" stroke-width="1" fill="none" fill-rule="evenodd">
        <g id="Vector-Trace">
            <rect id="Plate" fill="#0095D9" x="0" y="0" width="16" height="16" rx="1.3"></rect>
            <path d="M4.09273752,5.20290217 C4.27137064,5.11579879 4.49873561,4.94710839 4.77483242,4.69683099 C4.99292401,4.471661 5.15432914,4.22841554 5.2590478,3.96709461 L6.62259677,3.96709461 L6.62259677,12.125072 L5.0648255,12.125072 L5.0648255,6.03001358 C4.89350954,6.18226182 4.73764603,6.30913186 4.59723499,6.41062371 C4.45682394,6.51211556 4.28865812,6.59320487 4.09273752,6.65389166 L4.09273752,5.20290217 Z M11.9072625,6.71055955 L11.9072625,9.35519001 C11.9072625,9.95594557 11.8790107,10.3934523 11.8225071,10.6677103 C11.7660035,10.9419683 11.6628615,11.2587291 11.4848753,11.4970723 C11.306889,11.7354155 11.1073279,11.8814592 10.855887,11.9859384 C10.6044461,12.0904176 10.1987357,12.1075647 9.88796601,12.1075647 C9.4783151,12.1075647 9.20835844,12.0953151 8.93714128,11.9859384 C8.66592413,11.8765617 8.43834952,11.7288856 8.27731433,11.4970723 C8.11627915,11.265259 8.03818025,10.9558444 7.97037597,10.6995438 C7.90257168,10.4432432 7.86866953,10.0359375 7.86866953,9.4776266 L7.86866953,6.71055955 C7.86866953,5.98246992 7.92305422,5.43721895 8.0318236,5.07480663 C8.14059298,4.71239431 8.25994623,4.46344396 8.58038754,4.21526928 C8.90082885,3.96709461 9.39567862,3.874928 9.85618275,3.874928 C10.4565529,3.874928 10.8897883,4.00502057 11.2698551,4.2724843 C11.6499218,4.53994803 11.776598,5.12378127 11.8288638,5.39803924 C11.8811296,5.67229722 11.9072625,6.10980398 11.9072625,6.71055955 Z M10.2474521,5.90136398 C10.2474521,5.45009119 10.226792,5.16760842 10.1854717,5.05391566 C10.1441515,4.9402229 10.0474621,4.88337652 9.89540365,4.88337652 C9.74665079,4.88337652 9.64830861,4.94372114 9.60037714,5.06441037 C9.55244566,5.18509961 9.52847992,5.46408415 9.52847992,5.90136398 L9.52847992,10.0467768 C9.52847992,10.5400285 9.55079285,10.8373788 9.59541871,10.9388277 C9.64004457,11.0402766 9.73673393,11.0910011 9.88548679,11.0910011 C10.0342397,11.0910011 10.1317554,11.031531 10.1780341,10.9125909 C10.2243128,10.7936508 10.2474521,10.5260355 10.2474521,10.1097451 L10.2474521,5.90136398 Z" id="Combined-Shape" fill="#FFFFFF"></path>
        </g>
    </g>
</svg>