<?xml version="1.0" encoding="UTF-8"?>
<svg width="16px" height="16px" viewBox="0 0 16 16" version="1.1" xmlns="http://www.w3.org/2000/svg" xmlns:xlink="http://www.w3.org/1999/xlink">
    <title>_Assets/Badge/badge_Ratings_Brazil/A18</title>
    <g id="_Assets/Badge/badge_Ratings_Brazil/A18" stroke="none" stroke-width="1" fill="none" fill-rule="evenodd">
        <g id="Vector-Trace">
            <rect id="Plate" fill="#000000" x="0" y="0" width="16" height="16" rx="1.3"></rect>
            <path d="M12.5578768,3.96689346 L12.5741772,3.96689346 L12.5741772,4.93289346 L12.506563,4.93876015 C12.4062874,4.95698817 12.3359793,5.01167224 12.2956385,5.10281234 C12.2452126,5.21673748 12.2199996,5.4295976 12.2199996,5.7413927 L12.2199996,6.47890804 C12.2199996,6.77071627 12.2488144,6.97258362 12.3064441,7.08451006 C12.3605273,7.18954873 12.4495046,7.24530002 12.5733759,7.25176394 L12.5751022,8.4144137 C12.5716196,8.41435134 12.5681136,8.41432015 12.5645843,8.41432015 C12.4251321,8.41432015 12.3249008,8.46379167 12.2638905,8.56273472 C12.2028801,8.66167776 12.172375,8.87046436 12.172375,9.1890945 L12.172375,10.245605 C12.172375,10.5977751 12.2063664,10.8241702 12.2743494,10.9247903 C12.3388922,11.0203187 12.4387871,11.0704999 12.574034,11.0753339 L12.5746086,12.0563425 L12.5746086,12.0563425 C12.0726562,12.0563425 11.6395469,11.9528784 11.3467413,11.7700116 C11.0539358,11.5871448 10.926561,11.4682625 10.7996786,11.1666927 C10.6727962,10.8651229 10.6211772,10.3479818 10.6211772,9.64538833 C10.6211772,9.17378452 10.6260573,8.75697192 10.9349524,8.33288389 C11.2438475,7.90879586 11.3597864,7.9963733 11.6916327,7.78784101 C11.1607966,7.63212873 10.8529692,7.26695124 10.7529397,6.93607256 C10.6529102,6.60519387 10.6211772,6.36661897 10.6211772,5.97842808 C10.6211772,5.30791654 10.7886922,4.77555127 11.1121726,4.4402955 C11.435653,4.10503973 11.9137046,3.96689346 12.5578768,3.96689346 Z M12.5923275,3.96689346 L12.5760272,3.96689346 L12.5760272,4.93289346 L12.6436413,4.93876015 C12.7439169,4.95698817 12.8142251,5.01167224 12.8545658,5.10281234 C12.9049918,5.21673748 12.9302048,5.4295976 12.9302048,5.7413927 L12.9302048,6.47890804 C12.9302048,6.77071627 12.9013899,6.97258362 12.8437603,7.08451006 C12.7896771,7.18954873 12.7006998,7.24530002 12.5768284,7.25176394 L12.5751022,8.4144137 C12.5785848,8.41435134 12.5820907,8.41432015 12.5856201,8.41432015 C12.7250723,8.41432015 12.8253035,8.46379167 12.8863139,8.56273472 C12.9473242,8.66167776 12.9778294,8.87046436 12.9778294,9.1890945 L12.9778294,10.245605 C12.9778294,10.5977751 12.9438379,10.8241702 12.875855,10.9247903 C12.8113121,11.0203187 12.7114173,11.0704999 12.5761704,11.0753339 L12.5755958,12.0563425 L12.5755958,12.0563425 C13.0775482,12.0563425 13.5106574,11.9528784 13.803463,11.7700116 C14.0962686,11.5871448 14.2236434,11.4682625 14.3505258,11.1666927 C14.4774082,10.8651229 14.5290272,10.3479818 14.5290272,9.64538833 C14.5290272,9.17378452 14.5241471,8.75697192 14.215252,8.33288389 C13.9063569,7.90879586 13.7904179,7.9963733 13.4585716,7.78784101 C13.9894078,7.63212873 14.2972352,7.26695124 14.3972647,6.93607256 C14.4972942,6.60519387 14.5290272,6.36661897 14.5290272,5.97842808 C14.5290272,5.30791654 14.3615122,4.77555127 14.0380317,4.4402955 C13.7145513,4.10503973 13.2364998,3.96689346 12.5923275,3.96689346 Z M5.62445801,4.12433725 L6.86603116,12.0560964 L4.70779599,12.0560964 L4.59731163,10.6243373 L3.84631163,10.6243373 L3.73116935,12.0560964 L1.55431163,12.0560964 L2.62673056,4.12433725 L5.62445801,4.12433725 Z M9.32573816,4.12433725 L9.32573816,12.0560964 L7.81116343,12.0560964 L7.81116343,6.1300521 C7.644598,6.27807854 7.49305655,6.40143051 7.35653906,6.50010802 C7.22002157,6.59878553 7.05651894,6.67762627 6.86603116,6.73663022 L6.86603116,5.32587624 C7.03971084,5.24118821 7.26077104,5.07717555 7.52921177,4.83383826 C7.74125575,4.61491217 7.89818516,4.37841183 8,4.12433725 L9.32573816,4.12433725 Z M4.23356081,5.91581212 L3.83238545,9.21416663 L3.83831163,9.21533725 L4.48831163,9.21533725 L4.23356081,5.91581212 Z" id="Combined-Shape" fill="#FFFFFF" fill-rule="nonzero"></path>
        </g>
    </g>
</svg>