<?xml version="1.0" encoding="UTF-8"?>
<svg width="16px" height="16px" viewBox="0 0 16 16" version="1.1" xmlns="http://www.w3.org/2000/svg" xmlns:xlink="http://www.w3.org/1999/xlink">
    <title>_Assets/Badge/badge_Ratings_Brazil/16</title>
    <g id="_Assets/Badge/badge_Ratings_Brazil/16" stroke="none" stroke-width="1" fill="none" fill-rule="evenodd">
        <g id="Vector-Trace">
            <rect id="Plate" fill="#EB1A25" x="0" y="0" width="16" height="16" rx="1.3"></rect>
            <path d="M11.8519926,5.86097341 L10.1976942,5.86097341 C10.1976942,5.49636184 10.1942819,5.34649709 10.1874572,5.25131088 C10.1806325,5.15612467 10.1478742,4.97949788 10.0891821,4.91496486 C10.03049,4.85043183 9.9506414,4.81816532 9.84963638,4.81816532 C9.76501056,4.81816532 9.695399,4.84881851 9.64080169,4.91012488 C9.58620439,4.97143125 9.55481093,5.14725138 9.54662134,5.24405092 C9.53843174,5.34085045 9.53433695,5.70878031 9.53433695,6.00240557 L9.53433695,7.33405522 C9.59337476,7.22917217 9.73493322,7.10372254 9.89872513,6.99885637 C10.062517,6.89399021 10.2750591,6.83785659 10.5152872,6.83785659 C10.8183023,6.83785659 11.1147325,6.86171678 11.3467711,7.05531585 C11.5788096,7.24891492 11.677464,7.42821654 11.7402509,7.69925523 C11.8030378,7.97029392 11.8519926,8.24654141 11.8519926,8.70795252 L11.8519926,9.33230951 C11.8519926,9.8808402 11.8342484,10.2890116 11.7987602,10.5568236 C11.7632719,10.8246356 11.6684091,11.0722811 11.5141717,11.29976 C11.3599343,11.5272389 11.1483698,11.7038981 10.8794781,11.8297375 C10.6105863,11.9555769 10.2973343,12.0184966 9.93972194,12.0184966 C9.4947539,12.0184966 8.99713197,11.8967332 8.71322598,11.7515339 C8.42932,11.6063346 8.34286742,11.487862 8.18863004,11.21521 C8.03439265,10.942558 7.94487289,10.6149033 7.91893917,10.3148248 C7.89300545,10.0147462 7.88003859,9.43233569 7.88003859,8.5675932 L7.88003859,7.48343842 C7.88003859,6.55093625 7.89164052,5.92738593 7.91484437,5.61278744 C7.93804823,5.29818896 8.08417058,4.81307074 8.25069236,4.5323521 C8.41721414,4.25163345 8.59321589,4.15297913 8.88121668,4.01261981 C9.16921747,3.87226048 9.48929417,3.85220028 9.86601558,3.85220028 C10.3300927,3.85220028 10.7907565,3.87444143 11.0883118,4.05190724 C11.3858671,4.22937306 11.5566647,4.39714664 11.6849684,4.71981175 C11.813272,5.04247686 11.8519926,5.37052244 11.8519926,5.86097341 Z M10.2551658,8.71865495 C10.2551658,8.4343801 10.2247384,8.23935434 10.1638837,8.13357765 C10.1030289,8.02780096 10.0037395,7.97491262 9.86601558,7.97491262 C9.73149451,7.97491262 9.63300587,8.02532182 9.57054965,8.12614023 C9.50809344,8.22695863 9.47686534,8.42446354 9.47686534,8.71865495 L9.47686534,10.1714316 C9.47686534,10.5251224 9.506492,10.7565089 9.56574533,10.8655912 C9.62499866,10.9746734 9.7234873,11.0292145 9.86121125,11.0292145 C9.9444862,11.0292145 10.030964,10.9870691 10.1206447,10.9027783 C10.2103255,10.8184875 10.2551658,10.5912329 10.2551658,10.2210145 L10.2551658,8.71865495 Z M4.10542164,5.20542637 C4.27850296,5.12098829 4.49880156,4.95745971 4.76631745,4.71484062 C4.9776309,4.49656068 5.13401965,4.26075836 5.23548372,4.00743367 L6.55665444,4.00743367 L6.55665444,11.9157826 L5.04729773,11.9157826 L5.04729773,6.00722874 C4.88130616,6.15481829 4.7302868,6.27780619 4.59423964,6.37619246 C4.45819248,6.47457873 4.29525315,6.55318677 4.10542164,6.61201658 L4.10542164,5.20542637 Z" id="Combined-Shape" fill="#FFFFFF" fill-rule="nonzero"></path>
        </g>
    </g>
</svg>