<?xml version="1.0" encoding="UTF-8"?>
<svg width="16px" height="16px" viewBox="0 0 16 16" version="1.1" xmlns="http://www.w3.org/2000/svg" xmlns:xlink="http://www.w3.org/1999/xlink">
    <title>_Assets/Badge/badge_Ratings_Brazil/12</title>
    <g id="_Assets/Badge/badge_Ratings_Brazil/12" stroke="none" stroke-width="1" fill="none" fill-rule="evenodd">
        <g id="Vector-Trace">
            <rect id="Plate" fill="#FFCC03" x="0" y="0" width="16" height="16" rx="1.3"></rect>
            <path d="M4.07768806,5.24555806 C4.25359702,5.15978302 4.47749466,4.99366516 4.74938098,4.7472045 C4.96414667,4.52546837 5.12309036,4.28593241 5.22621205,4.02859664 L6.56896682,4.02859664 L6.56896682,12.0621644 L5.03495165,12.0621644 L5.03495165,6.06005599 C4.86624826,6.20998243 4.71276168,6.3349177 4.57449192,6.43486179 C4.43622215,6.53480588 4.27062086,6.61465858 4.07768806,6.67441988 L4.07768806,5.24555806 Z M11.9223119,10.8174254 L11.9223119,11.9944762 L7.649851,11.9944762 L7.649851,10.6468199 C8.93565829,8.54395537 9.56601712,7.87585348 9.80853014,7.376179 C10.0510432,6.87650453 10.186746,6.35354574 10.186746,6.07359783 C10.186746,5.85875408 10.1622996,5.34143621 10.1183271,5.194608 C10.0743545,5.04777979 9.91577513,4.92448122 9.76603555,4.92448122 C9.61629596,4.92448122 9.52321367,5.03068994 9.45573454,5.194608 C9.41074844,5.30388671 9.38730837,5.64585019 9.3854143,6.22049844 L7.78185994,6.22049844 C7.766021,5.63561132 7.82149491,5.18824269 7.94828164,4.87839256 C8.13846175,4.41361735 8.39854891,4.25521839 8.68500725,4.12826526 C8.97146558,4.00131214 9.31489006,3.93783557 9.71528069,3.93783557 C10.4997859,3.93783557 10.9614643,4.07010925 11.3634826,4.45910665 C11.7655008,4.84810404 11.7587377,5.40267932 11.7587377,5.99838245 C11.7587377,6.45085641 11.7711856,7.0028398 11.5449486,7.50739709 C11.3187116,8.01195438 10.4163731,9.18005565 9.30960228,10.8174254 L11.9223119,10.8174254 Z" id="Combined-Shape" fill="#FFFFFF"></path>
        </g>
    </g>
</svg>