<svg width="28" height="27" viewBox="0 0 28 27" fill="none" xmlns="http://www.w3.org/2000/svg">
<path fill-rule="evenodd" clip-rule="evenodd" d="M4.28093 2.12166C4.84744 1.83763 5.53632 2.06788 5.81958 2.63595L11.7718 14.5729L21.8763 13.5064C22.5062 13.4399 23.0706 13.898 23.1369 14.5296C23.2032 15.1613 22.7463 15.7272 22.1164 15.7937L10.4311 17.0271L3.76805 3.66452C3.48479 3.09645 3.71442 2.40569 4.28093 2.12166Z" fill="#6F6E73"/>
<path fill-rule="evenodd" clip-rule="evenodd" d="M2.81711 3.49843C3.10037 3.35641 3.44481 3.47154 3.58644 3.75557L10.2904 17.2001L23.9451 15.803C24.2602 15.7707 24.5417 16.0007 24.5738 16.3166C24.606 16.6326 24.3766 16.9148 24.0616 16.947L9.61881 18.4248L2.56067 4.26986C2.41904 3.98583 2.53386 3.64045 2.81711 3.49843Z" fill="#6F6E73"/>
<path fill-rule="evenodd" clip-rule="evenodd" d="M6.80078 12.3473C6.80078 12.0297 7.05751 11.7723 7.3742 11.7723H18.4644C18.9232 11.7723 19.3379 12.0465 19.5186 12.4693L24.5304 24.1984C24.6552 24.4903 24.5203 24.8283 24.2292 24.9534C23.9381 25.0784 23.601 24.9432 23.4763 24.6513L18.4644 12.9223H7.3742C7.05751 12.9223 6.80078 12.6648 6.80078 12.3473Z" fill="#6F6E73"/>
<path fill-rule="evenodd" clip-rule="evenodd" d="M8.19247 13.5551C8.47884 13.6907 8.60136 14.0334 8.46613 14.3206L3.59207 24.6704C3.45684 24.9575 3.11507 25.0804 2.8287 24.9448C2.54233 24.8092 2.41981 24.4665 2.55504 24.1793L7.4291 13.8295C7.56433 13.5424 7.9061 13.4195 8.19247 13.5551Z" fill="#6F6E73"/>
<path fill-rule="evenodd" clip-rule="evenodd" d="M24.5732 16.3105C24.6087 16.626 24.3824 16.9107 24.0677 16.9464L6.29169 18.9588C5.977 18.9945 5.69309 18.7675 5.65756 18.452C5.62203 18.1364 5.84834 17.8517 6.16303 17.8161L23.939 15.8036C24.2537 15.768 24.5376 15.9949 24.5732 16.3105Z" fill="#6F6E73"/>
</svg>
