<svg width="28" height="27" viewBox="0 0 28 27" fill="none" xmlns="http://www.w3.org/2000/svg">
<path d="M18.4231 10.8462C18.4231 13.289 16.4428 15.2692 14 15.2692C11.5572 15.2692 9.57692 13.289 9.57692 10.8462C9.57692 8.40336 11.5572 6.42308 14 6.42308C16.4428 6.42308 18.4231 8.40336 18.4231 10.8462Z" fill="#6F6E73"/>
<path fill-rule="evenodd" clip-rule="evenodd" d="M5.15385 2C3.68817 2 2.5 3.18817 2.5 4.65385V22.3462C2.5 23.8118 3.68817 25 5.15385 25H22.8462C24.3118 25 25.5 23.8118 25.5 22.3462V4.65385C25.5 3.18817 24.3118 2 22.8462 2H5.15385ZM21.8216 23.2308H22.8462C23.3347 23.2308 23.7308 22.8347 23.7308 22.3462V4.65385C23.7308 4.16529 23.3347 3.76923 22.8462 3.76923H5.15385C4.66529 3.76923 4.26923 4.16529 4.26923 4.65385V22.3462C4.26923 22.8347 4.66529 23.2308 5.15385 23.2308H6.17843C6.59121 20.885 8.15864 17.0385 14 17.0385C19.8414 17.0385 21.4088 20.885 21.8216 23.2308Z" fill="#6F6E73"/>
</svg>
