<svg width="63" height="16" viewBox="0 0 63 16" fill="none" xmlns="http://www.w3.org/2000/svg">
<path fill-rule="evenodd" clip-rule="evenodd" d="M1.5 0C0.67157 0 0 0.671631 0 1.5V14.5C0 15.3284 0.67157 16 1.5 16H8.5C9.32843 16 10 15.3284 10 14.5V1.5C10 0.671631 9.32843 0 8.5 0H1.5ZM1 1.5C1 1.22388 1.22388 1 1.5 1H8.5C8.77612 1 9 1.22388 9 1.5V14.5C9 14.7761 8.77612 15 8.5 15H1.5C1.22388 15 1 14.7761 1 14.5V1.5ZM5 14C5.55231 14 6 13.5522 6 13C6 12.4478 5.55231 12 5 12C4.44769 12 4 12.4478 4 13C4 13.5522 4.44769 14 5 14Z" fill="#6F6E73"/>
<path d="M22.9082 12V5.58984H24.3555V12H22.9082ZM23.6289 4.54688C23.3672 4.54688 23.1523 4.47266 22.9844 4.32422C22.8164 4.17188 22.7324 3.97852 22.7324 3.74414C22.7324 3.50977 22.8164 3.31836 22.9844 3.16992C23.1523 3.01758 23.3672 2.94141 23.6289 2.94141C23.8945 2.94141 24.1094 3.01758 24.2734 3.16992C24.4414 3.31836 24.5254 3.50977 24.5254 3.74414C24.5254 3.97852 24.4414 4.17188 24.2734 4.32422C24.1094 4.47266 23.8945 4.54688 23.6289 4.54688ZM26.3125 3.54492H29.7227C30.5664 3.54492 31.25 3.80859 31.7734 4.33594C32.3008 4.86328 32.5645 5.55273 32.5645 6.4043C32.5645 7.24023 32.293 7.91992 31.75 8.44336C31.2109 8.9668 30.5137 9.22852 29.6582 9.22852H27.8242V12H26.3125V3.54492ZM27.8242 4.81055V7.97461H29.3184C29.8613 7.97461 30.2812 7.83789 30.5781 7.56445C30.8789 7.29102 31.0293 6.9043 31.0293 6.4043C31.0293 5.88867 30.8809 5.49414 30.584 5.2207C30.291 4.94727 29.8711 4.81055 29.3242 4.81055H27.8242ZM34.1406 12V3.11133H35.5703V6.62695H35.6758C35.8281 6.26367 36.0723 5.98047 36.4082 5.77734C36.7441 5.57422 37.1484 5.47266 37.6211 5.47266C38.3125 5.47266 38.8516 5.68164 39.2383 6.09961C39.6289 6.51758 39.8242 7.10547 39.8242 7.86328V12H38.3711V8.20898C38.3711 7.72461 38.2617 7.35938 38.043 7.11328C37.8242 6.86328 37.5039 6.73828 37.082 6.73828C36.6133 6.73828 36.248 6.87891 35.9863 7.16016C35.7246 7.4375 35.5938 7.81055 35.5938 8.2793V12H34.1406ZM44.3125 12.1289C43.3516 12.1289 42.5977 11.834 42.0508 11.2441C41.5039 10.6504 41.2305 9.83398 41.2305 8.79492C41.2305 7.76367 41.5059 6.95117 42.0566 6.35742C42.6074 5.75977 43.3594 5.46094 44.3125 5.46094C45.2695 5.46094 46.0215 5.75781 46.5684 6.35156C47.1191 6.94531 47.3945 7.75977 47.3945 8.79492C47.3945 9.83398 47.1191 10.6504 46.5684 11.2441C46.0215 11.834 45.2695 12.1289 44.3125 12.1289ZM43.1348 10.3594C43.4121 10.7266 43.8047 10.9102 44.3125 10.9102C44.8203 10.9102 45.2109 10.7266 45.4844 10.3594C45.7617 9.98828 45.9004 9.4668 45.9004 8.79492C45.9004 8.12695 45.7617 7.60742 45.4844 7.23633C45.207 6.86523 44.8164 6.67969 44.3125 6.67969C43.8047 6.67969 43.4121 6.86523 43.1348 7.23633C42.8574 7.60742 42.7188 8.12695 42.7188 8.79492C42.7188 9.4668 42.8574 9.98828 43.1348 10.3594ZM48.8594 12V5.58984H50.2598V6.61523H50.3594C50.5156 6.24805 50.7539 5.96484 51.0742 5.76562C51.3984 5.5625 51.7949 5.46094 52.2637 5.46094C52.9746 5.46094 53.5195 5.66797 53.8984 6.08203C54.2812 6.49609 54.4727 7.08594 54.4727 7.85156V12H53.0195V8.19727C53.0195 7.2168 52.5879 6.72656 51.7246 6.72656C51.291 6.72656 50.9473 6.86523 50.6934 7.14258C50.4395 7.41992 50.3125 7.79492 50.3125 8.26758V12H48.8594ZM58.8848 6.61523C58.4512 6.61523 58.0938 6.75781 57.8125 7.04297C57.5312 7.32812 57.375 7.70508 57.3438 8.17383H60.3613C60.3457 7.69727 60.2051 7.31836 59.9395 7.03711C59.6738 6.75586 59.3223 6.61523 58.8848 6.61523ZM60.373 10.2363H61.75C61.6133 10.8223 61.291 11.2852 60.7832 11.625C60.2793 11.9609 59.6523 12.1289 58.9023 12.1289C57.9609 12.1289 57.2207 11.8359 56.6816 11.25C56.1465 10.6602 55.8789 9.84961 55.8789 8.81836C55.8789 7.78711 56.1484 6.9707 56.6875 6.36914C57.2266 5.76367 57.9609 5.46094 58.8906 5.46094C59.8047 5.46094 60.5195 5.74805 61.0352 6.32227C61.5547 6.89258 61.8145 7.68359 61.8145 8.69531V9.16406H57.3379V9.24023C57.3574 9.77539 57.5098 10.1992 57.7949 10.5117C58.084 10.8203 58.4668 10.9746 58.9434 10.9746C59.6777 10.9746 60.1543 10.7285 60.373 10.2363Z" fill="#6F6E73"/>
</svg>
