<svg width="16" height="19" viewBox="0 0 16 19" fill="none" xmlns="http://www.w3.org/2000/svg">
<path d="M9.5 18.5H4.5C4 18.5 3.5 18 3 17.5C2.5 17 1.5 15.5 1.5 15V4.5C1.5 4 2 3.5 2.5 3.5C3 3.5 3.5 4 3.5 4.5V9C3.5 9.5 4 9.5 4 9V2.5C4 2 4.5 1.5 5 1.5C5.5 1.5 6 2 6 2.5V8.5C6 9 6.5 9 6.5 8.5V1.5C6.5 1 7 0.5 7.5 0.5C8 0.5 8.5 1 8.5 1.5V8.5C8.5 9 9 9 9 8.5V2.5C9 2 9.5 1.5 10 1.5C10.5 1.5 11 2 11 2.5V11.5C11 12 11 12.5 11.5 11.5C12 10.5 13 8.5 13.5 8C14 7.5 14 7.5 14.5 7.5C15 7.5 15 8.5 15 8.5C15 8.5 14 13.5 13.5 14.5C13 15.5 11 18.5 9.5 18.5Z" fill="#0983FF"/>
</svg>
