<svg width="18" height="18" viewBox="0 0 18 18" fill="none" xmlns="http://www.w3.org/2000/svg">
<path fill-rule="evenodd" clip-rule="evenodd" d="M16 9C16 12.866 12.866 16 9 16C5.13401 16 2 12.866 2 9C2 5.13401 5.13401 2 9 2C12.866 2 16 5.13401 16 9ZM17.5 9C17.5 13.6944 13.6944 17.5 9 17.5C4.30558 17.5 0.5 13.6944 0.5 9C0.5 4.30558 4.30558 0.5 9 0.5C13.6944 0.5 17.5 4.30558 17.5 9ZM5.02095 12.4999C4.98421 12.7502 4.9937 12.9275 5.06612 13C5.13853 13.0724 5.31583 13.0819 5.5661 13.0451C7.0661 12.4999 11.0661 11 11.0661 11C11.0661 11 12.5661 6.99994 13.1113 5.49994C13.148 5.24966 13.1385 5.07237 13.0661 4.99995C12.9937 4.92754 12.8164 4.91805 12.5661 4.95479C11.0661 5.49994 7.06612 6.99995 7.06612 6.99995C7.06612 6.99995 5.5661 10.9999 5.02095 12.4999ZM9.80609 8.99994C9.80609 9.41415 9.4703 9.74994 9.05609 9.74994C8.64188 9.74994 8.30609 9.41415 8.30609 8.99994C8.30609 8.58572 8.64188 8.24994 9.05609 8.24994C9.4703 8.24994 9.80609 8.58572 9.80609 8.99994Z" fill="#0983FF"/>
</svg>
