<svg width="18" height="24" viewBox="0 0 18 24" fill="none" xmlns="http://www.w3.org/2000/svg">
<path fill-rule="evenodd" clip-rule="evenodd" d="M9.70711 0.792893C9.31658 0.402369 8.68342 0.402369 8.29289 0.792893L4.79289 4.29289C4.40237 4.68342 4.40237 5.31658 4.79289 5.70711C5.18342 6.09763 5.81658 6.09763 6.20711 5.70711L8 3.91421V14.5C8 15.0523 8.44771 15.5 9 15.5C9.55229 15.5 10 15.0523 10 14.5V3.91421L11.7929 5.70711C12.1834 6.09763 12.8166 6.09763 13.2071 5.70711C13.5976 5.31658 13.5976 4.68342 13.2071 4.29289L9.70711 0.792893ZM2 10.5C2 9.94771 2.44772 9.5 3 9.5H6V7.5H3C1.34315 7.5 0 8.84315 0 10.5V20.5C0 22.1569 1.34315 23.5 3 23.5H15C16.6569 23.5 18 22.1569 18 20.5V10.5C18 8.84315 16.6569 7.5 15 7.5H12V9.5H15C15.5523 9.5 16 9.94771 16 10.5V20.5C16 21.0523 15.5523 21.5 15 21.5H3C2.44772 21.5 2 21.0523 2 20.5V10.5Z" fill="#0983FF"/>
</svg>
