<svg width="25" height="24" viewBox="0 0 25 24" fill="none" xmlns="http://www.w3.org/2000/svg">
<path fill-rule="evenodd" clip-rule="evenodd" d="M21.5 9.17423C23.5 4.67423 23 0.674235 22.5 0.174235C22 -0.325765 18 0.174235 14 2.67423C10 5.17423 8 8.67423 8 8.67423C8 8.67423 5.5 8.17423 3.5 10.1742C1.5 12.1742 1.5 16.1742 1.5 16.1742L6.5 15.1742C6.5 15.1742 6.5 16.6742 7.5 17.6742C8.5 18.6742 10 18.6742 10 18.6742V23.1742C10 23.1742 14 22.6742 15.5 20.6742C17 18.6742 16.5 15.6742 16.5 15.6742C16.5 15.6742 19.5 13.6742 21.5 9.17423ZM18.5 7.5C18.5 8.88071 17.3807 10 16 10C14.6193 10 13.5 8.88071 13.5 7.5C13.5 6.11929 14.6193 5 16 5C17.3807 5 18.5 6.11929 18.5 7.5ZM5.50005 16.9999C5.00011 16.4999 4.00005 17.4999 3.50005 18.4999C3.00005 19.4999 3.50005 21.9999 3.50005 21.9999C3.50005 21.9999 6.00005 21.9999 7.00005 21.4999C8.00005 20.9999 8.5 19.5 8.00005 18.9999C7.79297 18.7928 7.50007 19.0146 7.1569 19.2745C6.6716 19.6421 6.08578 20.0857 5.5 19.4999C4.9142 18.9141 5.1863 18.3283 5.41171 17.8431C5.57109 17.4999 5.70713 17.207 5.50005 16.9999Z" fill="#6F6E73"/>
</svg>
