<svg width="25" height="24" viewBox="0 0 25 24" fill="none" xmlns="http://www.w3.org/2000/svg">
<path fill-rule="evenodd" clip-rule="evenodd" d="M13.1792 1.18613C12.5593 0.93252 11.8635 0.938285 11.2478 1.20214L1.92426 5.19796C1.37067 5.43521 1.35527 6.21442 1.89905 6.47336L11.1595 10.8831C11.8254 11.2002 12.5973 11.2071 13.2688 10.9018L22.9997 6.47869C23.5584 6.22473 23.5431 5.42592 22.9751 5.19355L13.1792 1.18613ZM4.79861 10.5415C4.43055 10.3805 4.01329 10.3738 3.64029 10.523L2.16555 11.1129C1.51787 11.372 1.48891 12.2781 2.11872 12.578L2.33325 12.1275L2.11872 12.578L11.5698 17.0785C11.9778 17.2727 12.4516 17.2727 12.8596 17.0785L22.3106 12.578C22.9404 12.2781 22.9115 11.372 22.2638 11.1129L20.789 10.523C20.416 10.3738 19.9988 10.3805 19.6307 10.5415L12.4151 13.6983C12.2873 13.7542 12.142 13.7542 12.0143 13.6983L4.79861 10.5415ZM4.79861 16.5415C4.43055 16.3805 4.01329 16.3738 3.64029 16.523L2.16555 17.1129C1.51787 17.372 1.48891 18.2781 2.11872 18.578L11.5698 23.0785C11.9778 23.2727 12.4516 23.2727 12.8596 23.0785L22.3106 18.578C22.9404 18.2781 22.9115 17.372 22.2638 17.1129L20.789 16.523C20.416 16.3738 19.9988 16.3805 19.6307 16.5415L12.4151 19.6983C12.2873 19.7542 12.142 19.7542 12.0143 19.6983L4.79861 16.5415Z" fill="#6F6E73"/>
</svg>
