<svg width="25" height="23" viewBox="0 0 25 23" fill="none" xmlns="http://www.w3.org/2000/svg">
<path fill-rule="evenodd" clip-rule="evenodd" d="M12.5 0C10.843 0 9.5 1.343 9.5 3C9.5 4.657 10.843 6 12.5 6C14.157 6 15.5 4.657 15.5 3C15.5 1.343 14.157 0 12.5 0ZM15.41 19.947C13.557 20.77 11.443 20.77 9.59 19.947L1.111 16.181C0.826996 16.055 0.507996 16.263 0.507996 16.573V17.402C0.510996 17.939 0.793996 18.475 1.371 18.731L9.591 22.383C11.444 23.206 13.558 23.206 15.411 22.383L23.631 18.731C24.208 18.475 24.491 17.939 24.494 17.402V16.573C24.494 16.263 24.174 16.055 23.891 16.181L15.41 19.947ZM15.41 8.40101L23.63 12.053C24.79 12.569 24.79 14.215 23.63 14.731L15.41 18.383C13.557 19.206 11.443 19.206 9.59 18.383L1.37 14.731C0.21 14.215 0.21 12.569 1.37 12.053L9.59 8.40101C10.204 8.12901 10.848 7.95501 11.5 7.86301V13.25C11.5 13.664 11.948 14 12.5 14C13.052 14 13.5 13.664 13.5 13.25V7.86301C14.153 7.95501 14.796 8.12801 15.41 8.40101ZM3.509 13.378C3.509 13.918 4.276 14.355 5.222 14.355C6.169 14.355 6.935 13.918 6.935 13.378C6.935 12.838 6.168 12.401 5.222 12.401C4.276 12.401 3.509 12.838 3.509 13.378Z" fill="#6F6E73"/>
</svg>
