<svg width="25" height="24" viewBox="0 0 25 24" fill="none" xmlns="http://www.w3.org/2000/svg">
<path fill-rule="evenodd" clip-rule="evenodd" d="M16 9.75C16 12.9256 13.4256 15.5 10.25 15.5C7.07436 15.5 4.5 12.9256 4.5 9.75C4.5 6.57436 7.07436 4 10.25 4C13.4256 4 16 6.57436 16 9.75ZM14.716 17.2761C13.4086 18.0535 11.8814 18.5 10.25 18.5C5.41751 18.5 1.5 14.5825 1.5 9.75C1.5 4.91751 5.41751 1 10.25 1C15.0825 1 19 4.91751 19 9.75C19 11.8826 18.2371 13.837 16.9693 15.3551C17.0006 15.3817 17.0311 15.4098 17.0607 15.4393L22.5607 20.9393C23.1464 21.5251 23.1464 22.4749 22.5607 23.0607C21.9749 23.6464 21.0251 23.6464 20.4393 23.0607L14.9393 17.5607C14.8518 17.4731 14.7773 17.3774 14.716 17.2761Z" fill="#6F6E73"/>
</svg>
