<svg width="25" height="24" viewBox="0 0 25 24" fill="none" xmlns="http://www.w3.org/2000/svg">
<path d="M6.5 4H13V5.5H6.5V4Z" fill="#6F6E73"/>
<path d="M6.5 8H18.5V20H6.5V8Z" fill="#6F6E73"/>
<path fill-rule="evenodd" clip-rule="evenodd" d="M3.5 4C3.5 2.34315 4.84315 1 6.5 1H18.5C20.1569 1 21.5 2.34315 21.5 4V20C21.5 21.6569 20.1569 23 18.5 23H6.5C4.84315 23 3.5 21.6569 3.5 20V4ZM6.5 2.5H18.5C19.3284 2.5 20 3.17157 20 4V20C20 20.8284 19.3284 21.5 18.5 21.5H6.5C5.67157 21.5 5 20.8284 5 20V4C5 3.17157 5.67157 2.5 6.5 2.5Z" fill="#6F6E73"/>
</svg>
