<svg width="10" height="16" viewBox="0 0 10 16" fill="none" xmlns="http://www.w3.org/2000/svg">
<path fill-rule="evenodd" clip-rule="evenodd" d="M1.5 0C0.67157 0 0 0.671631 0 1.5V14.5C0 15.3284 0.67157 16 1.5 16H8.5C9.32843 16 10 15.3284 10 14.5V1.5C10 0.671631 9.32843 0 8.5 0H1.5ZM1 1.5C1 1.22388 1.22388 1 1.5 1H8.5C8.77612 1 9 1.22388 9 1.5V14.5C9 14.7761 8.77612 15 8.5 15H1.5C1.22388 15 1 14.7761 1 14.5V1.5ZM5 14C5.55231 14 6 13.5522 6 13C6 12.4478 5.55231 12 5 12C4.44769 12 4 12.4478 4 13C4 13.5522 4.44769 14 5 14Z" fill="#6F6E73"/>
</svg>
